<svg width="33" height="33" viewBox="0 0 33 33" fill="none" xmlns="http://www.w3.org/2000/svg">
<path d="M26.9167 10.7917C26.1389 11.1389 25.2986 11.375 24.3958 11.5C25.3403 10.9444 25.9861 10.1319 26.3333 9.0625C25.4306 9.59028 24.5 9.94444 23.5417 10.125C22.6944 9.20833 21.6319 8.75 20.3542 8.75C19.1458 8.75 18.1146 9.17708 17.2604 10.0312C16.4062 10.8854 15.9792 11.9167 15.9792 13.125C15.9792 13.5278 16.0139 13.8611 16.0833 14.125C14.2917 14.0278 12.6111 13.5764 11.0417 12.7708C9.47222 11.9653 8.13889 10.8889 7.04167 9.54167C6.63889 10.2361 6.4375 10.9722 6.4375 11.75C6.4375 13.3333 7.06944 14.5486 8.33333 15.3958C7.68056 15.3819 6.98611 15.2014 6.25 14.8542V14.8958C6.25 15.9375 6.59722 16.8646 7.29167 17.6771C7.98611 18.4896 8.84028 18.9931 9.85417 19.1875C9.45139 19.2986 9.09722 19.3542 8.79167 19.3542C8.61111 19.3542 8.34028 19.3264 7.97917 19.2708C8.27083 20.1458 8.78819 20.8681 9.53125 21.4375C10.2743 22.0069 11.1181 22.2986 12.0625 22.3125C10.4514 23.5625 8.63889 24.1875 6.625 24.1875C6.26389 24.1875 5.91667 24.1667 5.58333 24.125C7.63889 25.4306 9.875 26.0833 12.2917 26.0833C13.8472 26.0833 15.3056 25.8368 16.6667 25.3438C18.0278 24.8507 19.1944 24.191 20.1667 23.3646C21.1389 22.5382 21.9757 21.5868 22.6771 20.5104C23.3785 19.434 23.8993 18.309 24.2396 17.1354C24.5799 15.9618 24.75 14.7917 24.75 13.625C24.75 13.375 24.7431 13.1875 24.7292 13.0625C25.6042 12.4375 26.3333 11.6806 26.9167 10.7917ZM32.25 6.75V26.75C32.25 28.4028 31.6632 29.816 30.4896 30.9896C29.316 32.1632 27.9028 32.75 26.25 32.75H6.25C4.59722 32.75 3.18403 32.1632 2.01042 30.9896C0.836806 29.816 0.25 28.4028 0.25 26.75V6.75C0.25 5.09722 0.836806 3.68403 2.01042 2.51042C3.18403 1.33681 4.59722 0.75 6.25 0.75H26.25C27.9028 0.75 29.316 1.33681 30.4896 2.51042C31.6632 3.68403 32.25 5.09722 32.25 6.75Z" fill="#563E2E"/>
</svg>
