<svg width="34" height="33" viewBox="0 0 34 33" fill="none" xmlns="http://www.w3.org/2000/svg">
<path d="M10.175 0.5H23.825C29.025 0.5 33.25 4.725 33.25 9.925V23.575C33.25 26.0747 32.257 28.472 30.4895 30.2395C28.722 32.007 26.3247 33 23.825 33H10.175C4.975 33 0.75 28.775 0.75 23.575V9.925C0.75 7.42533 1.74299 5.02805 3.51052 3.26052C5.27805 1.49299 7.67533 0.5 10.175 0.5ZM9.85 3.75C8.29848 3.75 6.81051 4.36634 5.71343 5.46343C4.61634 6.56051 4 8.04848 4 9.6V23.9C4 27.1337 6.61625 29.75 9.85 29.75H24.15C25.7015 29.75 27.1895 29.1337 28.2866 28.0366C29.3837 26.9395 30 25.4515 30 23.9V9.6C30 6.36625 27.3837 3.75 24.15 3.75H9.85ZM25.5312 6.1875C26.07 6.1875 26.5866 6.40151 26.9676 6.78244C27.3485 7.16337 27.5625 7.68003 27.5625 8.21875C27.5625 8.75747 27.3485 9.27413 26.9676 9.65506C26.5866 10.036 26.07 10.25 25.5312 10.25C24.9925 10.25 24.4759 10.036 24.0949 9.65506C23.714 9.27413 23.5 8.75747 23.5 8.21875C23.5 7.68003 23.714 7.16337 24.0949 6.78244C24.4759 6.40151 24.9925 6.1875 25.5312 6.1875ZM17 8.625C19.1549 8.625 21.2215 9.48102 22.7452 11.0048C24.269 12.5285 25.125 14.5951 25.125 16.75C25.125 18.9049 24.269 20.9715 22.7452 22.4952C21.2215 24.019 19.1549 24.875 17 24.875C14.8451 24.875 12.7785 24.019 11.2548 22.4952C9.73102 20.9715 8.875 18.9049 8.875 16.75C8.875 14.5951 9.73102 12.5285 11.2548 11.0048C12.7785 9.48102 14.8451 8.625 17 8.625ZM17 11.875C15.7071 11.875 14.4671 12.3886 13.5529 13.3029C12.6386 14.2171 12.125 15.4571 12.125 16.75C12.125 18.0429 12.6386 19.2829 13.5529 20.1971C14.4671 21.1114 15.7071 21.625 17 21.625C18.2929 21.625 19.5329 21.1114 20.4471 20.1971C21.3614 19.2829 21.875 18.0429 21.875 16.75C21.875 15.4571 21.3614 14.2171 20.4471 13.3029C19.5329 12.3886 18.2929 11.875 17 11.875Z" fill="#563E2E"/>
</svg>
